<?xml version="1.0" encoding="utf-8"?>
<!-- Uploaded to: SVG Repo, www.svgrepo.com, Generator: SVG Repo Mixer Tools -->
<svg width="800px" height="800px" viewBox="0 0 1024 1024" class="icon"  version="1.1" xmlns="http://www.w3.org/2000/svg"><path d="M993.763 493.538v35c0 13.331-6.04 26.664-18.135 37.137-140.15 121.422-280.35 242.795-420.49 364.219-11.814 10.237-25.813 15.501-42.454 15.501v-35c16.643 0 30.64-5.264 42.454-15.501 140.141-121.424 280.336-242.802 420.49-364.217 12.095-10.475 18.135-23.803 18.135-37.139z" fill="#CFD690" /><path d="M30.239 528.367v-3.5-1.75-3.5-3.5-1.75-3.5-3.5-1.75-3.5-3.5-1.75-3.5c0 14.707 6.701 29.313 19.037 40.019 138.449 120.064 277.049 239.996 415.562 360.02 13.002 11.26 28.74 16.466 47.852 16.994v35c-19.108-0.528-34.85-5.734-47.852-16.994C326.325 808.382 187.725 688.45 49.276 568.386c-12.337-10.705-19.037-25.312-19.037-40.019z" fill="#CFD690" /><path d="M510.786 76.601c16.263 0 32.546 5.362 44.946 16.097 139.95 121.188 279.901 242.376 419.819 363.586 24.241 20.995 24.295 53.413 0.079 74.397-140.15 121.42-280.35 242.796-420.489 364.217-11.815 10.239-25.813 15.502-42.452 15.502-19.109-0.528-34.852-5.734-47.854-16.994-138.511-120.024-277.111-239.956-415.56-360.02-19.581-16.988-24.96-43.81-11.895-65.251 3.919-6.438 8.669-11.829 14.465-16.849C189.954 331.734 328.024 212.152 466.107 92.567c12.296-10.64 28.478-15.966 44.679-15.966z" fill="#F1F4C0" /><path d="M565.979 353.63a42.562 42.562 0 0 0-1.264 10.01v-16.8c0.023-3.432 0.46-6.781 1.264-10.011v16.335c0 0.157 0.019 0.312 0 0.466z" fill="#8DA947" /><path d="M575.605 318.338v16.8c-6.278 7.4-10.196 16.388-10.808 26.131v-16.8c0.611-9.742 4.529-18.731 10.808-26.131" fill="#8DA947" /><path d="M564.798 344.468v16.8a44.41 44.41 0 0 0-0.083 2.372v-16.8c0.007-0.796 0.034-1.586 0.083-2.372" fill="#8DA947" /><path d="M564.715 363.64l-0.002 0.265v-16.8l0.002-0.265c0 5.04 0.027 11.76 0 16.8z" fill="#8DA947" /><path d="M564.715 346.84v16.8l-0.002 0.266v-16.8l0.002-0.266" fill="#8DA947" /><path d="M565.979 353.63v-0.058-0.059-0.059-0.059-0.059-0.059-0.057-0.057-1.908-2.023-2.099-2.138-2.136-2.1-2.023-1.908c5.453-21.888 27.904-38.339 54.921-38.392l0.362 0.001c30.935 0.168 56.014 21.955 55.955 48.717v16.8c0.059-26.763-25.021-48.55-55.955-48.717l-0.362-0.001c-27.018 0.055-49.468 16.507-54.921 38.394z" fill="#8DA947" /><path d="M677.218 347.158v16.8c0.059-26.763-25.021-48.55-55.955-48.717l-0.362-0.001c-2.974 0.005-5.891 0.21-8.737 0.6v-16.8a65.497 65.497 0 0 1 8.737-0.6l0.362 0.001c30.934 0.166 56.013 21.953 55.955 48.717M612.163 299.037v16.8a62.686 62.686 0 0 0-13.158 3.26v-16.8a62.686 62.686 0 0 1 13.158-3.26M599.005 302.297v16.8a58.948 58.948 0 0 0-11.41 5.641v-16.8a58.863 58.863 0 0 1 11.41-5.641M587.593 307.938v16.8c-4.578 2.924-8.62 6.434-11.988 10.4v-16.8c3.368-3.965 7.411-7.477 11.988-10.4M575.605 318.338v16.8c-6.278 7.4-10.196 16.388-10.808 26.131v-16.8c0.611-9.742 4.529-18.731 10.808-26.131" fill="#8DA947" /><path d="M564.715 363.925v-16.8 16.8z" fill="#8DA947" /><path d="M564.715 347.471v16.453-16.8 0.347" fill="#8DA947" /><path d="M538.969 363.605v-16.8c0 2.89 0.205 5.811 0.627 8.75 0.725 5.072 2.217 10.057 3.386 15.25v16.8c-1.169-5.194-2.661-10.179-3.386-15.25a61.498 61.498 0 0 1-0.627-8.75z" fill="#8DA947" /><path d="M542.981 370.805v16.8c-1.169-5.194-2.661-10.179-3.386-15.25a61.53 61.53 0 0 1-0.627-8.75v-16.8c0 2.89 0.205 5.811 0.627 8.75 0.725 5.072 2.218 10.056 3.386 15.25" fill="#8DA947" /><path d="M677.218 347.158v16.8c-0.061 26.834-25.039 48.502-56.105 48.65v-16.799c31.066-0.151 56.044-21.818 56.105-48.651z" fill="#8DA947" /><path d="M677.218 347.158v16.8a42.76 42.76 0 0 1-0.083 2.59v-16.8c0.053-0.858 0.08-1.722 0.083-2.59M677.135 349.746v16.8c-0.611 9.765-4.525 18.754-10.8 26.151v-16.8c6.274-7.397 10.189-16.386 10.8-26.151M666.335 375.897v16.8c-3.362 3.962-7.403 7.466-11.977 10.388v-16.8c4.574-2.92 8.615-6.426 11.977-10.388" fill="#8DA947" /><path d="M654.359 386.285v16.8a58.917 58.917 0 0 1-11.418 5.645v-16.8a58.889 58.889 0 0 0 11.418-5.645M642.939 391.93v16.8a62.956 62.956 0 0 1-13.224 3.274v-16.8a62.987 62.987 0 0 0 13.224-3.274" fill="#8DA947" /><path d="M629.716 395.206v16.8a66.233 66.233 0 0 1-8.604 0.602v-16.799c2.928-0.017 5.8-0.221 8.604-0.603" fill="#8DA947" /><path d="M620.771 298.437l0.492 0.001c30.935 0.168 56.017 21.955 55.955 48.718-0.061 26.833-25.039 48.502-56.105 48.65-0.435 0-0.554 0-0.674-0.002-30.599-0.166-55.521-21.719-55.723-48.333v-0.631c0.191-26.685 25.18-48.342 56.055-48.403z" fill="#F5F7D2" /><path d="M621.112 395.806v16.8l-0.674-0.001c-30.599-0.167-55.521-21.719-55.723-48.333v-16.8c0.201 26.614 25.122 48.167 55.723 48.333 0.12 0.001 0.24 0.003 0.674 0.001z" fill="#8DA947" /><path d="M621.112 395.806v16.8l-0.674-0.001c-30.599-0.167-55.521-21.719-55.723-48.333v-16.8c0.201 26.614 25.122 48.167 55.723 48.333 0.12 0.001 0.24 0.003 0.674 0.001" fill="#8DA947" /><path d="M703.01 346.471v16.8c0 2.478-0.16 4.968-0.492 7.461-4.434 33.452-32.93 59.16-71.032 63.341-4.002 0.44-7.915 0.659-11.74 0.659-23.766 0-44.048-8.447-60.807-24.578-0.987-0.952-1.998-1.895-3.135-2.986v-16.8c1.137 1.09 2.147 2.034 3.135 2.986 16.759 16.13 37.041 24.578 60.807 24.578 3.824 0 7.737-0.219 11.74-0.659 38.103-4.181 66.599-29.89 71.032-63.341 0.331-2.493 0.492-4.982 0.492-7.461z" fill="#8DA947" /><path d="M703.01 346.471v16.8c0 1.148-0.031 2.3-0.103 3.452v-16.8c0.07-1.152 0.103-2.303 0.103-3.452M702.906 349.925v16.8a57.968 57.968 0 0 1-0.389 4.008c-1.765 13.313-7.341 25.4-15.817 35.391v-16.8c8.477-9.991 14.053-22.078 15.817-35.39a56.9 56.9 0 0 0 0.389-4.009" fill="#8DA947" /><path d="M686.7 389.323v16.8c-4.806 5.666-10.543 10.657-17.05 14.816v-16.8c6.507-4.159 12.245-9.15 17.05-14.816M669.65 404.139v16.8c-4.998 3.197-10.451 5.902-16.276 8.045v-16.8c5.827-2.142 11.278-4.849 16.276-8.045M653.374 412.184v16.8c-6.081 2.232-12.567 3.854-19.381 4.781v-16.8c6.816-0.927 13.301-2.548 19.381-4.781" fill="#8DA947" /><path d="M633.994 416.965v16.8a107.395 107.395 0 0 1-14.249 0.967c-23.766 0-44.048-8.447-60.807-24.578-0.987-0.952-1.998-1.895-3.135-2.986v-16.8c1.137 1.09 2.147 2.034 3.135 2.986 16.759 16.13 37.041 24.578 60.807 24.578a107.423 107.423 0 0 0 14.249-0.967" fill="#8DA947" /><path d="M430.621 469.414v-16.8c0-1.563 1.014-2.498 3.184-3.541 39.636-19.056 79.199-38.227 118.792-57.37 1.009-0.48 2.075-0.865 3.206-1.335v16.8c-1.131 0.47-2.197 0.856-3.206 1.336-39.594 19.143-79.156 38.314-118.792 57.37-2.17 1.043-3.184 1.979-3.184 3.54z" fill="#8DA947" /><path d="M555.804 390.369v16.8c-1.13 0.47-2.197 0.856-3.206 1.335-39.594 19.144-79.156 38.314-118.791 57.37a13.09 13.09 0 0 0-1.37 0.745v-16.8a13.09 13.09 0 0 1 1.37-0.745c39.635-19.056 79.197-38.227 118.791-57.37 1.008-0.48 2.076-0.865 3.206-1.335" fill="#8DA947" /><path d="M432.437 449.82v16.8c-0.484 0.309-0.868 0.624-1.155 0.964v-16.8c0.286-0.341 0.671-0.656 1.155-0.964M431.281 450.784v16.8a2.67 2.67 0 0 0-0.653 1.623v-16.8a2.665 2.665 0 0 1 0.653-1.623M430.626 452.406v16.8a3.566 3.566 0 0 0-0.005 0.208v-16.8c0-0.07 0.003-0.139 0.005-0.208" fill="#8DA947" /><path d="M408.909 474.46v16.8c-0.06-26.601-24.947-48.301-55.48-48.638a87.61 87.61 0 0 0-0.723-0.004l-0.386 0.001c-30.878 0.183-56.026 22.173-55.906 48.875v-16.8c-0.12-26.703 25.028-48.692 55.906-48.876l0.386-0.001c0.239 0 0.482 0.001 0.723 0.004 30.532 0.338 55.42 22.038 55.48 48.639z" fill="#8DA947" /><path d="M408.909 474.46v16.8c-0.06-26.601-24.947-48.301-55.48-48.638a87.61 87.61 0 0 0-0.723-0.004l-0.386 0.001a64.244 64.244 0 0 0-8.341 0.588v-16.8a64.433 64.433 0 0 1 8.341-0.588l0.386-0.001c0.239 0 0.482 0.001 0.723 0.004 30.532 0.337 55.42 22.037 55.48 48.638" fill="#8DA947" /><path d="M343.979 426.408v16.8a62.43 62.43 0 0 0-13.113 3.251v-16.8a62.4 62.4 0 0 1 13.113-3.251" fill="#8DA947" /><path d="M330.867 429.659v16.8a59.161 59.161 0 0 0-11.464 5.668v-16.8a59.161 59.161 0 0 1 11.464-5.668M319.401 435.328v16.8c-4.62 2.952-8.706 6.498-12.104 10.504v-16.8c3.398-4.006 7.485-7.553 12.104-10.504" fill="#8DA947" /><path d="M307.299 445.832v16.8c-6.274 7.398-10.198 16.361-10.801 26.045v-16.8c0.604-9.684 4.527-18.648 10.801-26.045M296.497 471.875v16.8a41.85 41.85 0 0 0-0.083 2.82v-16.8c-0.003-0.945 0.025-1.886 0.083-2.82" fill="#8DA947" /><path d="M434.525 474.521v16.8c0 6.791-1.2 13.582-3.543 20.339-0.246 0.711-0.374 1.309-0.374 1.824v-16.8c0-0.516 0.127-1.113 0.374-1.824 2.343-6.756 3.543-13.548 3.543-20.339z" fill="#8DA947" /><path d="M434.525 474.521v16.8c0 1.162-0.035 2.325-0.105 3.486v-16.8a57.91 57.91 0 0 0 0.105-3.486" fill="#8DA947" /><path d="M434.42 478.008v16.8c-0.34 5.63-1.497 11.252-3.438 16.854-0.215 0.62-0.339 1.151-0.367 1.618v-16.8c0.027-0.466 0.152-0.998 0.367-1.617 1.941-5.603 3.099-11.226 3.438-16.855M430.615 496.479v16.8a3.57 3.57 0 0 0-0.007 0.205v-16.8a3.6 3.6 0 0 1 0.007-0.205" fill="#8DA947" /><path d="M352.773 523.381v16.8c-31.089-0.087-56.229-21.877-56.358-48.684v-16.8c0.13 26.806 25.273 48.597 56.358 48.684z" fill="#8DA947" /><path d="M352.773 523.381v16.8c-31.089-0.087-56.229-21.877-56.358-48.684v-16.8c0.13 26.806 25.273 48.597 56.358 48.684" fill="#8DA947" /><path d="M352.706 425.817c0.239 0 0.484 0.001 0.724 0.004 30.533 0.336 55.42 22.038 55.479 48.638 0.07 26.624-24.899 48.572-55.414 48.917-0.241 0.001-0.48 0.004-0.723 0.004-31.088-0.088-56.227-21.878-56.358-48.684-0.12-26.704 25.028-48.694 55.904-48.877l0.388-0.002z" fill="#F5F7D2" /><path d="M408.909 474.459v16.801c0.07 26.622-24.899 48.571-55.414 48.916-0.241 0.001-0.48 0.004-0.723 0.004v-16.8c0.241 0 0.482-0.003 0.723-0.004 30.514-0.344 55.484-22.293 55.414-48.917z" fill="#8DA947" /><path d="M408.909 474.459v16.801c0.001 0.919-0.026 1.836-0.083 2.746v-16.8c0.057-0.91 0.085-1.826 0.083-2.747" fill="#8DA947" /><path d="M408.827 477.206v16.8c-0.607 9.726-4.551 18.735-10.849 26.162v-16.8c6.296-7.426 10.243-16.435 10.849-26.162M397.978 503.368v16.8c-3.409 4.023-7.507 7.583-12.138 10.543V513.91c4.631-2.959 8.729-6.518 12.138-10.542M385.84 513.91v16.801a59.038 59.038 0 0 1-11.446 5.661v-16.8a59.098 59.098 0 0 0 11.446-5.662" fill="#8DA947" /><path d="M374.394 519.572v16.8a61.919 61.919 0 0 1-13.017 3.227v-16.8a61.903 61.903 0 0 0 13.017-3.227M361.377 522.799v16.8c-2.574 0.35-5.206 0.548-7.88 0.578-0.241 0.002-0.48 0.004-0.723 0.004v-16.8c0.242 0 0.482-0.003 0.723-0.004a64.25 64.25 0 0 0 7.88-0.578" fill="#8DA947" /><path d="M542.981 579.966v16.801c0-1.205-0.559-2.06-2.408-2.951a29961.565 29961.565 0 0 1-119.49-57.887c-1.024-0.494-1.849-0.729-2.577-0.729-1.206 0-2.148 0.642-3.296 1.795-17.16 17.16-40.109 25.368-62.761 25.368-30.32 0-60.111-14.692-74.823-42.287-4.887-9.161-7.153-18.772-7.153-28.256v-1.681-0.839-1.68-1.68-0.839-1.681-1.68-0.839-1.68-1.68-0.84-1.68c0 9.483 2.267 19.094 7.153 28.257 14.712 27.593 44.503 42.286 74.823 42.286 22.65 0 45.601-8.207 62.761-25.367 1.148-1.153 2.092-1.795 3.296-1.795 0.73 0 1.553 0.233 2.577 0.729a30028.317 30028.317 0 0 0 119.49 57.887c1.847 0.889 2.408 1.743 2.408 2.948z" fill="#8DA947" /><path d="M542.981 579.966v16.801c0-1.205-0.559-2.06-2.408-2.951a29961.565 29961.565 0 0 1-119.49-57.887c-1.024-0.494-1.849-0.729-2.577-0.729-0.148 0-0.294 0.01-0.435 0.029v-16.801c0.141-0.021 0.287-0.028 0.435-0.028 0.73 0 1.553 0.233 2.577 0.729a30028.317 30028.317 0 0 0 119.49 57.887c1.847 0.891 2.408 1.745 2.408 2.95" fill="#8DA947" /><path d="M418.071 518.429v16.801a3.092 3.092 0 0 0-0.663 0.164v-16.801c0.215-0.079 0.435-0.134 0.663-0.164M417.408 518.593v16.801a4.072 4.072 0 0 0-0.759 0.384v-16.8a3.93 3.93 0 0 1 0.759-0.385M416.648 518.978v16.8c-0.466 0.298-0.934 0.708-1.44 1.217a84.476 84.476 0 0 1-14.271 11.465v-16.8a84.526 84.526 0 0 0 14.271-11.465c0.508-0.509 0.974-0.92 1.44-1.217" fill="#8DA947" /><path d="M400.938 531.661v16.8a86.733 86.733 0 0 1-16.807 8.319v-16.8a86.875 86.875 0 0 0 16.807-8.319M384.131 539.98v16.8a91.078 91.078 0 0 1-19.049 4.725v-16.8a91.093 91.093 0 0 0 19.049-4.725M365.082 544.705v16.8a93.367 93.367 0 0 1-12.633 0.856c-30.32 0-60.111-14.692-74.823-42.286-4.887-9.162-7.153-18.773-7.153-28.257v-16.8c0 9.483 2.267 19.096 7.153 28.257 14.712 27.594 44.503 42.285 74.823 42.285a92.893 92.893 0 0 0 12.633-0.855" fill="#8DA947" /><path d="M613.098 570.78c-27.208 3.234-48.338 23.585-48.392 48.148v-16.801c0.054-24.481 21.048-44.78 48.13-48.116 0.001 0.693 0.005 2.804 0.041 5.237 0.061 3.845 0.157 7.689 0.221 11.532z" fill="#8DA947" /><path d="M677.218 602.313v16.801c0.141-26.721-24.849-48.51-55.955-48.781-0.188-0.002-0.379-0.002-0.568-0.002l-0.359 0.002a64.166 64.166 0 0 0-8.313 0.586v-16.8c2.712-0.37 5.489-0.57 8.313-0.587l0.359-0.001 0.568 0.001c31.106 0.271 56.094 22.061 55.955 48.781M612.021 554.118v16.8a62.017 62.017 0 0 0-13.013 3.224v-16.8a61.802 61.802 0 0 1 13.013-3.224" fill="#8DA947" /><path d="M599.008 557.342v16.8a58.64 58.64 0 0 0-11.371 5.625v-16.8a58.669 58.669 0 0 1 11.371-5.625M587.637 562.965v16.801c-4.587 2.93-8.648 6.453-12.028 10.437v-16.8c3.38-3.982 7.441-7.507 12.028-10.438" fill="#8DA947" /><path d="M575.609 573.402v16.8c-6.276 7.403-10.21 16.399-10.819 26.15v-16.8c0.609-9.75 4.542-18.746 10.819-26.15M564.788 599.553v16.8a40.055 40.055 0 0 0-0.083 2.576v-16.801a40 40 0 0 1 0.083-2.575" fill="#8DA947" /><path d="M620.335 570.332a64.084 64.084 0 0 0-7.237 0.448c-0.063-3.844-0.159-7.688-0.221-11.531-0.036-2.434-0.04-4.544-0.041-5.237a64.037 64.037 0 0 1 7.499-0.48l0.359-0.001 0.568 0.001c31.106 0.271 56.095 22.062 55.955 48.781v16.801c0.141-26.721-24.849-48.51-55.955-48.781-0.188-0.002-0.379-0.002-0.568-0.002-0.122-0.001-0.238 0.001-0.359 0.001z" fill="#8DA947" /><path d="M677.218 602.313v16.801c0.141-26.721-24.849-48.51-55.955-48.781-0.188-0.002-0.379-0.002-0.568-0.002l-0.359 0.002a64.166 64.166 0 0 0-8.313 0.586v-16.8c2.712-0.37 5.489-0.57 8.313-0.587l0.359-0.001 0.568 0.001c31.106 0.271 56.094 22.061 55.955 48.781" fill="#8DA947" /><path d="M620.89 650.894v16.8c-31.247-0.123-56.233-21.93-56.185-48.765v-16.801c-0.049 26.836 24.938 48.643 56.185 48.766z" fill="#8DA947" /><path d="M620.89 650.894v16.8c-31.247-0.123-56.233-21.93-56.185-48.765v-16.801c-0.049 26.836 24.938 48.643 56.185 48.766" fill="#8DA947" /><path d="M677.218 602.313v16.801c-0.13 26.819-25.077 48.406-55.966 48.577-0.12 0.001-0.24 0.003-0.362 0.003v-16.8c0.122 0 0.242-0.002 0.362-0.003 30.889-0.171 55.836-21.758 55.966-48.578z" fill="#8DA947" /><path d="M677.218 602.313v16.801c-0.004 0.834-0.03 1.663-0.083 2.486v-16.8c0.052-0.823 0.079-1.654 0.083-2.487M677.135 604.8v16.8c-0.614 9.792-4.537 18.798-10.821 26.201v-16.8c6.284-7.403 10.207-16.409 10.821-26.201M666.314 631.001v16.8c-3.363 3.965-7.406 7.472-11.977 10.392v-16.8c4.571-2.92 8.613-6.427 11.977-10.392" fill="#8DA947" /><path d="M654.338 641.393v16.8a58.89 58.89 0 0 1-11.405 5.637v-16.8a59.062 59.062 0 0 0 11.405-5.637M642.93 647.029v16.8a62.696 62.696 0 0 1-13.177 3.264v-16.8a62.773 62.773 0 0 0 13.177-3.264" fill="#8DA947" /><path d="M629.753 650.293v16.8c-2.771 0.379-5.61 0.583-8.501 0.598-0.12 0.001-0.24 0.003-0.362 0.003v-16.8c0.122 0 0.242-0.002 0.362-0.003a65.387 65.387 0 0 0 8.501-0.598" fill="#8DA947" /><path d="M620.694 553.529l0.568 0.002c31.107 0.271 56.098 22.06 55.955 48.781-0.13 26.82-25.077 48.407-55.966 48.578-0.12 0.001-0.24 0.003-0.362 0.003-31.247-0.123-56.233-21.93-56.185-48.766 0.061-26.702 25.029-48.424 55.628-48.597 0.124 0.001 0.242-0.001 0.362-0.001z" fill="#F5F7D2" /><path d="M695.441 572.537c23.295 42.092-8.91 93.711-62.376 99.97-3.96 0.464-7.889 0.689-11.749 0.689-44.684 0-81.386-30.169-82.156-70.264-0.132-6.992 1.967-14.055 3.526-21.003 0.536-2.383 0.596-3.605-2.115-4.915a30099.265 30099.265 0 0 1-119.489-57.887c-1.024-0.495-1.849-0.729-2.577-0.729-1.206 0-2.148 0.641-3.296 1.795-17.16 17.159-40.109 25.368-62.761 25.368-30.32 0-60.111-14.693-74.823-42.287-22.023-41.299 9.183-91.693 61.206-98.557 5.03-0.662 9.924-0.994 14.68-0.994 24.169 0 44.807 8.537 61.836 25.403 0.494 0.48 0.979 0.977 1.483 1.448 42.677-19.405 84.439-39.597 126.149-59.771-1.169-5.194-2.662-10.18-3.387-15.25-5.462-38.175 25.451-73.215 69.31-78.75 1.139-0.148 2.239-0.524 3.356-0.803h17.025c6.461 1.431 13.104 2.426 19.352 4.374 35.373 11.016 58.052 42.154 53.878 73.555-4.434 33.452-32.931 59.16-71.032 63.341-4.002 0.44-7.915 0.659-11.74 0.659-23.766 0-44.048-8.446-60.807-24.577-0.987-0.952-1.998-1.896-3.136-2.986-1.13 0.47-2.196 0.855-3.206 1.335-39.594 19.144-79.156 38.314-118.792 57.37-3.012 1.449-3.799 2.69-2.731 5.691 4.707 13.322 4.525 26.775-0.092 40.096-0.875 2.531-0.251 3.597 2.289 4.819a31968.752 31968.752 0 0 1 119.137 57.647c1.146 0.561 2.061 0.848 2.883 0.848 1.178 0 2.167-0.585 3.397-1.788 17.272-16.945 40.134-25.066 62.661-25.066 29.89 0.003 59.189 14.29 74.097 41.219z m-341.946-49.16c30.516-0.342 55.483-22.292 55.414-48.917-0.06-26.6-24.947-48.301-55.48-48.638a58.299 58.299 0 0 0-0.723-0.004l-0.386 0.001c-30.878 0.184-56.026 22.173-55.906 48.876 0.131 26.806 25.271 48.598 56.175 48.684 0.426 0.002 0.667-0.001 0.906-0.002m267.757 127.515c30.891-0.169 55.835-21.756 55.966-48.579 0.141-26.72-24.849-48.509-55.955-48.781l-0.568-0.001-0.359 0.001c-30.604 0.171-55.569 21.895-55.63 48.597-0.051 26.836 24.938 48.643 55.904 48.766 0.4-0.001 0.52-0.001 0.642-0.003M564.715 346.84c-0.003 0.21 0 0.421 0 0.631 0.198 26.614 25.122 48.169 55.723 48.333l0.359 0.001c31.382-0.148 56.359-21.816 56.421-48.65 0.059-26.764-25.021-48.55-55.955-48.717l-0.362-0.001c-31.006 0.063-55.994 21.718-56.186 48.403" fill="#CEDD54" /><path d="M703.126 601.844v16.8c0 33.765-28.653 65.818-70.059 70.665a101.28 101.28 0 0 1-11.75 0.688c-44.684 0-81.386-30.167-82.155-70.263a32.663 32.663 0 0 1-0.007-0.626v-16.8c0 0.208 0.003 0.418 0.007 0.626 0.77 40.097 37.472 70.263 82.155 70.263 3.861 0 7.788-0.225 11.75-0.688 41.406-4.849 70.059-36.901 70.059-70.665z" fill="#8DA947" /><path d="M703.126 601.844v16.8c0 1.22-0.035 2.438-0.109 3.652v-16.8a61.74 61.74 0 0 0 0.109-3.652M703.016 605.496v16.8c-0.856 14.039-6.615 27.62-16.112 38.883v-16.8c9.498-11.264 15.255-24.844 16.112-38.883M686.904 644.379v16.8c-4.929 5.843-10.865 11.062-17.645 15.397v-16.801c6.78-4.335 12.717-9.554 17.645-15.396" fill="#8DA947" /><path d="M669.26 659.775v16.801a83.06 83.06 0 0 1-16.081 7.962v-16.8a83.263 83.263 0 0 0 16.081-7.963M653.179 667.737v16.8a87.831 87.831 0 0 1-18.449 4.561v-16.8a87.831 87.831 0 0 0 18.449-4.561M634.729 672.298v16.8a101.033 101.033 0 0 1-13.413 0.898c-44.684 0-81.386-30.168-82.156-70.264a32.77 32.77 0 0 1-0.008-0.626v-16.801c0 0.208 0.004 0.419 0.008 0.627 0.771 40.097 37.473 70.264 82.156 70.264a101.254 101.254 0 0 0 13.413-0.898" fill="#8DA947" /></svg>